<svg xmlns="http://www.w3.org/2000/svg" xmlns:xlink="http://www.w3.org/1999/xlink" width="968" height="348.52"><rect width="968" height="348.52" rx="5" ry="5" class="a"/><svg y="0%" x="0%"><circle cx="20" cy="20" r="6" fill="#ff5f58"/><circle cx="40" cy="20" r="6" fill="#ffbd2e"/><circle cx="60" cy="20" r="6" fill="#18c132"/></svg><svg height="260.52" viewBox="0 0 90 26.052" width="900" x="29" xmlns="http://www.w3.org/2000/svg" xmlns:xlink="http://www.w3.org/1999/xlink" y="64"><style>@keyframes j{0%{transform:translateX(0)}5.7%{transform:translateX(-90px)}16%{transform:translateX(-180px)}32.2%{transform:translateX(-270px)}41.7%{transform:translateX(-360px)}51.4%{transform:translateX(-630px)}}.a{fill:#282d35}.f,.g{white-space:pre}.f{fill:#a8cc8c;font-weight:700}.g{fill:#b9c0cb}</style><g font-family="Monaco,Consolas,Menlo,'Bitstream Vera Sans Mono','Powerline Symbols',monospace" font-size="1.67"><defs><symbol id="1"><text y="1.67" class="f">$</text><text x="2.004" y="1.67" class="g">training</text><text x="11.022" y="1.67" class="g">build</text><text x="17.034" y="1.67" class="g">--src</text><text x="23.046" y="1.67" class="g">lessons</text><text x="31.062" y="1.67" class="g">--out</text><text x="37.074" y="1.67" class="g">site</text></symbol><symbol id="2"><text y="1.67" class="g">training:</text><text x="10.02" y="1.67" class="g">rendered</text><text x="19.038" y="1.67" class="g">3</text><text x="21.042" y="1.67" class="g">lesson(s),</text><text x="32.064" y="1.67" class="g">2</text><text x="34.068" y="1.67" class="g">challenge(s)</text><text x="47.094" y="1.67" class="g">-&gt;</text><text x="50.1" y="1.67" class="g">site</text><text x="55.11" y="1.67" class="g">(challenges.json</text><text x="72.144" y="1.67" class="g">included)</text></symbol><symbol id="3"><text y="1.67" class="f">$</text><text x="2.004" y="1.67" class="g">training</text><text x="11.022" y="1.67" class="g">serve</text><text x="17.034" y="1.67" class="g">--lessons-dir</text><text x="31.062" y="1.67" class="g">site</text><text x="36.072" y="1.67" class="g">\</text></symbol><symbol id="4"><text x="6.012" y="1.67" class="g">--challenges-file</text><text x="24.048" y="1.67" class="g">site/challenges.json</text><text x="45.09" y="1.67" class="g">--solves-file</text><text x="59.118" y="1.67" class="g">solves.jsonl</text></symbol><symbol id="5"><text y="1.67" class="g">scoring:</text><text x="9.018" y="1.67" class="g">loaded</text><text x="16.032" y="1.67" class="g">2</text><text x="18.036" y="1.67" class="g">challenge(s)</text></symbol><symbol id="6"><text y="1.67" class="g">scoring:</text><text x="9.018" y="1.67" class="g">solves</text><text x="16.032" y="1.67" class="g">persisted</text><text x="26.052" y="1.67" class="g">to</text><text x="29.058" y="1.67" class="g">solves.jsonl</text><text x="42.084" y="1.67" class="g">(recovered</text><text x="53.106" y="1.67" class="g">0)</text></symbol><symbol id="a"><path fill="transparent" d="M0 0h90v12H0z"/></symbol><symbol id="b"><path fill="#6f7683" d="M0 0h1.102v2.171H0z"/></symbol></defs><path class="a" d="M0 0h90v26.052H0z"/><g style="animation-duration:7.474s;animation-iteration-count:infinite;animation-name:j;animation-timing-function:steps(1,end)"><svg width="720"><svg><use xlink:href="#a"/><use xlink:href="#b" x="-.004"/></svg><svg x="90"><use xlink:href="#a"/><use xlink:href="#b" x="-.004" y="2.146"/><use xlink:href="#1"/></svg><svg x="180"><use xlink:href="#a"/><use xlink:href="#b" x="-.004" y="4.317"/><use xlink:href="#1"/><use xlink:href="#2" y="2.171"/></svg><svg x="270"><use xlink:href="#a"/><use xlink:href="#b" x="-.004" y="6.488"/><use xlink:href="#1"/><use xlink:href="#2" y="2.171"/><use xlink:href="#3" y="4.342"/></svg><svg x="360"><use xlink:href="#a"/><use xlink:href="#b" x="-.004" y="8.659"/><use xlink:href="#1"/><use xlink:href="#2" y="2.171"/><use xlink:href="#3" y="4.342"/><use xlink:href="#4" y="6.513"/></svg><svg x="450"><use xlink:href="#a"/><use xlink:href="#b" x="-.004" y="10.83"/><use xlink:href="#1"/><use xlink:href="#2" y="2.171"/><use xlink:href="#3" y="4.342"/><use xlink:href="#4" y="6.513"/><use xlink:href="#5" y="8.684"/></svg><svg x="540"><use xlink:href="#a"/><use xlink:href="#b" x="-.004" y="13.001"/><use xlink:href="#1"/><use xlink:href="#2" y="2.171"/><use xlink:href="#3" y="4.342"/><use xlink:href="#4" y="6.513"/><use xlink:href="#5" y="8.684"/><use xlink:href="#6" y="10.855"/></svg><svg x="630"><use xlink:href="#a"/><use xlink:href="#b" x="-.004" y="15.172"/><use xlink:href="#1"/><use xlink:href="#2" y="2.171"/><use xlink:href="#3" y="4.342"/><use xlink:href="#4" y="6.513"/><use xlink:href="#5" y="8.684"/><use xlink:href="#6" y="10.855"/><text y="14.696" class="g">serving</text><text x="8.016" y="14.696" class="g">on</text><text x="11.022" y="14.696" class="g">:8099</text><text x="17.034" y="14.696" class="g">(shim=false)</text></svg></svg></g></g></svg></svg>